<?xml version="1.0" encoding="UTF-8" standalone="no"?>
<svg width="69px" height="70px" viewBox="0 0 69 70" version="1.1" xmlns="http://www.w3.org/2000/svg" xmlns:xlink="http://www.w3.org/1999/xlink">
    <!-- Generator: Sketch 46.2 (44496) - http://www.bohemiancoding.com/sketch -->
    <title>Page 1</title>
    <desc>Created with Sketch.</desc>
    <defs></defs>
    <g id="lykke_securities" stroke="none" stroke-width="1" fill="none" fill-rule="evenodd">
        <g id="01a_lykke_securities_collapse" transform="translate(-767.000000, -1202.000000)">
            <g id="Page-1" transform="translate(760.000000, 1198.000000)">
                <polygon id="Fill-1" fill="#F5F6F7" opacity="0" points="0 80 80 80 80 0 0 0"></polygon>
                <g id="Group-22" transform="translate(8.000000, 5.000000)">
                    <path d="M54,26 C46.82,26 41,20.18 41,13 C41,12.186 41.084,11.392 41.228,10.62 C38.349,9.572 35.241,9 32,9 C17.088,9 5,21.088 5,36 C5,50.912 17.088,63 32,63 C46.912,63 59,50.912 59,36 C59,32.334 58.266,28.84 56.942,25.653 C55.996,25.873 55.014,26 54,26" id="Fill-2" fill="#0388EF"></path>
                    <path d="M40.75,44.0161 C36.323,48.4431 29.145,48.4431 24.717,44.0161 C20.29,39.5891 20.29,32.4111 24.717,27.9841 C29.145,23.5571 36.323,23.5571 40.75,27.9841" id="Stroke-4" stroke="#FFFFFF" stroke-width="2" stroke-linecap="round" stroke-linejoin="round"></path>
                    <path d="M17.25,33 L30.25,33" id="Stroke-6" stroke="#FFFFFF" stroke-width="2" stroke-linecap="round" stroke-linejoin="round"></path>
                    <path d="M17.25,39 L30.25,39" id="Stroke-8" stroke="#FFFFFF" stroke-width="2" stroke-linecap="round" stroke-linejoin="round"></path>
                    <path d="M67,13 C67,20.18 61.18,26 54,26 C46.82,26 41,20.18 41,13 C41,5.82 46.82,0 54,0 C61.18,0 67,5.82 67,13 Z" id="Stroke-10" stroke="#333333" stroke-width="2"></path>
                    <g id="Group-15" transform="translate(48.000000, 13.000000)">
                        <path d="M12,0 L0,0" id="Fill-12" fill="#F5F6F7"></path>
                        <path d="M12,0 L0,0" id="Stroke-14" stroke="#333333" stroke-width="2" stroke-linecap="round"></path>
                    </g>
                    <g id="Group-19" transform="translate(54.000000, 7.000000)">
                        <path d="M0,12 L0,0" id="Fill-16" fill="#F5F6F7"></path>
                        <path d="M0,12 L0,0" id="Stroke-18" stroke="#333333" stroke-width="2" stroke-linecap="round"></path>
                    </g>
                    <path d="M43.0752,5.9702 C39.6242,4.6972 35.8932,4.0002 32.0002,4.0002 C14.3272,4.0002 0.0002,18.3262 0.0002,36.0002 C0.0002,53.6732 14.3272,68.0002 32.0002,68.0002 C49.6732,68.0002 64.0002,53.6732 64.0002,36.0002 C64.0002,31.6032 63.1122,27.4142 61.5082,23.6012" id="Stroke-20" stroke="#333333" stroke-width="2"></path>
                </g>
            </g>
        </g>
    </g>
</svg>